####
#
# OBJ File Generated by Meshlab
#
####
# Object tree-body-only.obj
#
# Vertices: 201
# Faces: 245
#
####
vn -2.405158 -0.454002 -1.243697
v 0.714435 11.113300 0.012266
vn -2.712659 -0.415249 2.128536
v 0.607694 11.098400 -0.150646
vn -2.346485 -0.229494 1.846401
v 0.511107 11.748300 -0.166432
vn -2.290138 -0.193407 -0.065001
v 0.625299 11.776300 -0.029797
vn 2.352834 0.386736 1.815554
v 0.607694 11.098400 -0.150646
vn 2.561551 0.255766 -1.687829
v 0.489797 11.086300 0.014083
vn 2.307228 0.220454 -2.121684
v 0.395922 11.727100 -0.029241
vn 2.291975 0.068510 1.921386
v 0.511107 11.748300 -0.166432
vn -2.285215 -0.267582 1.920937
v 0.486126 13.048900 -0.077293
vn -2.321566 -0.310357 -1.120616
v 0.577066 13.060300 0.033473
vn 2.308415 0.059577 -1.088367
v 0.395246 13.037000 0.033484
vn 2.307924 0.278632 1.878162
v 0.486126 13.048900 -0.077293
vn -2.328109 -0.422719 1.842388
v 0.198915 14.494100 -0.081912
vn -2.374615 -0.476156 -1.238722
v 0.240538 14.499400 -0.026465
vn 2.343100 0.332339 -1.147244
v 0.157519 14.485200 -0.026820
vn 2.399979 0.287611 1.769390
v 0.198915 14.494100 -0.081912
vn -1.612361 -0.239961 1.157157
v 0.107712 15.295900 -0.046371
vn -0.818209 -0.119834 -1.446190
v 0.121881 15.295300 -0.025437
vn 1.623940 0.132947 0.160046
v 0.093597 15.297700 -0.025469
vn 0.829491 0.069790 0.554142
v 0.107712 15.295900 -0.046371
vn -2.730564 -0.075795 -0.353646
v 0.805657 0.041723 0.087354
vn -2.421555 -0.293561 1.523299
v 0.763636 0.039479 -0.189804
vn -5.132866 -0.237439 2.504765
v 0.659017 2.930340 0.202943
vn -5.272621 -0.324087 -1.435279
v 0.686822 2.928360 0.385871
vn -0.990353 -0.433190 2.647495
v 0.560506 0.025165 -0.401184
vn -2.561660 -0.074580 5.001862
v 0.526494 2.936650 0.063435
vn -0.131010 -0.156873 0.978891
v 0.335249 0.009686 -0.433812
vn -0.414443 -0.174164 2.936066
v 0.375185 2.942780 0.041577
vn 1.033620 -0.287992 1.687800
v 0.335249 0.009686 -0.433812
vn 2.464571 -0.304312 1.261191
v 0.013498 -0.013758 -0.241758
vn 4.480075 0.038491 3.130412
v 0.168757 2.951920 0.170186
vn 1.593831 0.211552 2.491177
v 0.375185 2.942780 0.041577
vn 2.408098 -0.028257 -1.183619
v -0.063543 -0.020076 0.115599
vn 5.135600 -0.118307 -1.399145
v 0.119408 2.953500 0.402704
vn 0.637527 0.173563 -2.712622
v 0.222828 -0.000184 0.393439
vn 2.053879 -0.266701 -5.032736
v 0.298741 2.944560 0.599000
vn -1.572516 0.145181 -2.270527
v 0.548230 0.022750 0.384360
vn -2.437768 -0.354312 -4.793736
v 0.523251 2.934840 0.592807
vn -4.397274 0.106312 1.818267
v 0.470833 4.727480 -0.089601
vn -5.298621 -0.082229 -1.488962
v 0.496958 4.724240 0.085111
vn -2.520977 0.287072 5.031244
v 0.345978 4.747760 -0.222891
vn -0.401746 0.273287 2.952372
v 0.202873 4.770720 -0.243729
vn 4.492248 -0.042800 3.049012
v 0.008735 4.804930 -0.120692
vn 1.067644 0.071899 1.664626
v 0.202873 4.770720 -0.243729
vn 4.364640 -0.171064 -0.734287
v -0.037503 4.814610 0.101373
vn 2.081675 -0.501441 -5.001290
v 0.131301 4.786990 0.288927
vn -1.694044 -0.459610 -4.174687
v 0.343212 4.751520 0.282824
vn -3.938407 0.411931 3.886884
v 0.950760 8.349040 -0.108430
vn -3.859966 0.288710 -4.529048
v 0.957398 8.349200 0.109673
vn -0.316404 -0.030071 2.981824
v 0.753604 8.371430 -0.125098
vn 3.456976 -0.495868 1.285344
v 0.753604 8.371430 -0.125098
vn 3.588211 -0.700466 -2.170282
v 0.718298 8.376050 0.114393
vn -3.132417 -0.045917 2.078907
v 1.016840 9.185350 -0.101380
vn -2.835519 -0.341432 -2.390263
v 1.022510 9.186850 0.104881
vn -0.246230 0.003767 2.989833
v 0.828754 9.182560 -0.116628
vn 2.894268 -0.084182 -2.566756
v 0.796061 9.183670 0.108563
vn 2.766840 0.174650 0.868327
v 0.828754 9.182560 -0.116628
vn -0.704538 -0.461672 1.810085
v 0.404574 6.411730 -0.021144
vn 0.812010 1.309347 0.645634
v 0.381159 6.198710 -0.099316
vn 0.543912 1.856083 2.280426
v -0.383230 6.734370 -0.245489
vn -0.851103 -0.739782 2.769895
v -0.323847 6.863310 -0.199190
vn 0.211333 -0.381829 -1.633638
v 0.354240 6.237280 0.109281
vn 1.122576 0.592134 -2.740756
v -0.407956 6.782210 -0.106216
vn -0.150914 -0.563630 -0.812124
v 0.404574 6.411730 -0.021144
vn -0.553708 -1.843771 -2.293161
v -0.323847 6.863310 -0.199190
vn 0.520089 1.791186 2.491503
v -1.000350 7.046770 -0.332125
vn -0.964320 -0.947297 2.675316
v -0.964897 7.130700 -0.290182
vn 1.156538 0.842622 -2.786602
v -1.007700 7.060270 -0.233010
vn -0.334221 -1.855688 -2.325579
v -0.964897 7.130700 -0.290182
vn -0.235502 0.275121 1.702542
v -1.753450 7.424970 -0.498283
vn -0.349477 -0.311627 0.883603
v -1.739580 7.456450 -0.481695
vn 0.871532 1.172269 -0.958217
v -1.755620 7.429120 -0.460382
vn -0.109501 -1.202853 -1.594005
v -1.739580 7.456450 -0.481695
vn -1.617279 -0.003820 0.527933
v 0.637215 6.693180 0.000369
vn -0.787538 -0.436677 0.434854
v 0.537780 6.919560 0.047617
vn -2.295753 -1.456166 1.257008
v 0.863718 7.238460 0.958141
vn -2.604065 1.250766 0.277844
v 0.961277 7.105410 0.972125
vn 1.726940 -0.961712 -0.295038
v 0.537780 6.919560 0.047617
vn 0.609760 1.346171 -0.830804
v 0.408610 6.699570 0.073307
vn 2.172755 1.444808 -1.250879
v 0.803130 7.097570 1.020540
vn 2.616673 -1.347067 -0.575962
v 0.863718 7.238460 0.958141
vn -1.511993 -1.083380 0.733777
v 1.406970 7.550390 2.547490
vn -1.013250 1.377801 -0.052391
v 1.434420 7.518720 2.554900
vn 1.582094 0.068361 -0.619810
v 1.393560 7.514510 2.566060
vn 0.873947 -0.436869 -0.212981
v 1.406970 7.550390 2.547490
vn -1.069622 1.329285 0.384343
v 0.876190 7.894350 0.021243
vn 1.645595 0.010107 0.599042
v 0.663238 7.883460 -0.026448
vn 2.294919 1.496015 1.229628
v 0.860126 8.176380 -0.564169
vn -2.663337 1.321299 -0.290203
v 1.041560 8.185000 -0.509553
vn 0.890820 -0.448475 0.072869
v 0.773690 8.104970 -0.013428
vn 2.703252 -1.282048 0.194518
v 0.925333 8.331050 -0.475838
vn -1.493695 -0.924359 -0.955592
v 0.773690 8.104970 -0.013428
vn -2.329571 -1.614197 -0.895688
v 0.925333 8.331050 -0.475838
vn 2.225231 1.375329 1.123148
v 0.987654 8.406360 -1.503260
vn -2.589664 1.180732 0.132447
v 1.128230 8.410340 -1.459250
vn 2.690844 -1.288145 0.217175
v 1.041500 8.527830 -1.439570
vn -2.320067 -1.322711 -1.255790
v 1.041500 8.527830 -1.439570
vn 0.632048 1.212923 0.945467
v 1.871880 9.392460 -3.338550
vn -1.544207 0.125102 -0.590630
v 1.906150 9.385240 -3.322360
vn 1.678754 -1.048211 0.248658
v 1.888010 9.418510 -3.315100
vn -0.796051 -0.322230 -0.512319
v 1.888010 9.418510 -3.315100
vn -0.821906 -1.529987 0.989753
v 0.895767 8.339410 0.091779
vn 1.433722 -0.089927 0.983940
v 0.730158 8.333220 -0.041944
vn 1.331761 -1.113542 2.295039
v 0.456670 8.782290 0.411763
vn -1.092356 -2.446290 1.324765
v 0.607480 8.758790 0.511581
vn -0.080707 1.198869 -1.317644
v 0.801439 8.113720 0.036340
vn 1.210718 2.229876 -1.548614
v 0.455583 8.666650 0.552776
vn -0.516688 0.401682 -0.756099
v 0.895767 8.339410 0.091779
vn -1.432627 1.202730 -2.341720
v 0.607480 8.758790 0.511581
vn 1.513089 -1.061679 2.252875
v -0.126108 9.309740 1.026860
vn -1.040236 -2.321399 1.576416
v -0.017758 9.323650 1.114240
vn 1.023930 2.313651 -1.535483
v -0.115334 9.226460 1.138730
vn -1.449000 0.969999 -2.437076
v -0.017758 9.323650 1.114240
vn 0.112701 -1.089497 1.377627
v -1.333750 10.940100 2.409760
vn -0.398137 -0.748810 0.529878
v -1.302810 10.939500 2.432160
vn 1.283552 1.156740 -0.307606
v -1.331120 10.914500 2.438040
vn -0.941706 0.599586 -1.658665
v -1.302810 10.939500 2.432160
vn -1.171587 1.016472 0.983220
v 0.848554 8.219830 -0.008735
vn 0.893430 -1.156577 0.714328
v 0.883439 8.453380 -0.071166
vn 0.107960 -1.913148 2.089923
v 1.549180 9.082450 0.088927
vn -1.750250 2.386204 0.537103
v 1.621380 8.929560 0.146432
vn 0.673228 -0.739376 -0.009322
v 0.832890 8.404820 0.129694
vn 1.682346 -2.363226 -0.373680
v 1.514420 9.023810 0.253998
vn -0.676055 1.065349 -1.551409
v 0.832890 8.404820 0.129694
vn -0.278683 2.013425 -2.116840
v 1.514420 9.023810 0.253998
vn 0.201927 -2.046162 2.338082
v 2.467900 9.295600 0.416667
vn -1.248688 2.863384 0.567167
v 2.524430 9.178810 0.467215
vn 1.110136 -2.697006 -0.616308
v 2.445220 9.258910 0.549071
vn -0.295254 1.861100 -2.295498
v 2.445220 9.258910 0.549071
vn -0.243587 -0.310651 1.736846
v 4.698650 10.527900 0.939876
vn -0.719528 1.462561 -0.754311
v 4.709460 10.495900 0.957164
vn 0.995381 -1.721056 -0.181772
v 4.695680 10.524800 0.977626
vn -0.137352 0.527917 -0.838116
v 4.695680 10.524800 0.977626
vn -1.296227 0.175250 1.512972
v 0.865659 9.855080 -0.059569
vn 0.905139 1.342059 0.633852
v 0.870731 9.612190 -0.026986
vn 0.303843 2.224505 1.988862
v -0.156072 10.782900 -1.042400
vn -1.828467 0.147641 2.369914
v -0.089832 10.894900 -0.998548
vn 0.522568 -0.823637 -1.405862
v 0.749794 9.768360 0.057168
vn 1.934523 -0.258726 -2.260308
v -0.197524 10.846900 -0.928163
vn -0.132102 -0.728444 -0.672249
v 0.865659 9.855080 -0.059569
vn -0.354633 -2.195332 -2.013102
v -0.089832 10.894900 -0.998548
vn 0.441330 2.085362 2.114179
v -0.804765 11.346300 -1.538340
vn -1.883515 0.196092 2.323137
v -0.747372 11.433000 -1.499280
vn 1.849028 -0.171315 -2.356328
v -0.836004 11.395600 -1.443840
vn -0.325904 -2.205242 -2.007100
v -0.747372 11.433000 -1.499280
vn 0.406376 2.103444 2.073967
v -1.767120 12.458900 -2.481820
vn -1.997562 0.340250 2.210222
v -1.737350 12.508500 -2.461820
vn 2.018120 -0.357151 -2.181809
v -1.785340 12.486900 -2.430560
vn -0.344178 -2.180582 -2.031010
v -1.737350 12.508500 -2.461820
vn -0.548007 0.851375 1.394678
v -2.305180 13.126100 -3.099370
vn -0.668616 0.139304 0.730443
v -2.285920 13.149800 -3.086260
vn 1.481321 0.452829 -0.761899
v -2.313540 13.140200 -3.070470
vn -0.221723 -1.479860 -1.326840
v -2.285920 13.149800 -3.086260
vn -0.253320 -1.496266 1.302644
v 0.852298 10.173800 0.039957
vn 1.627796 0.220258 0.586849
v 0.693118 10.150900 -0.015798
vn 2.170847 -0.676361 1.876227
v 0.350257 10.819400 0.683887
vn -0.373706 -2.156339 2.047956
v 0.481536 10.837800 0.731799
vn -0.612110 0.948840 -1.285827
v 0.805974 9.948560 0.015987
vn 0.445144 2.050409 -2.065841
v 0.399642 10.737500 0.787403
vn -0.755364 0.221003 -0.616913
v 0.852298 10.173800 0.039957
vn -2.186239 0.654324 -1.942682
v 0.481536 10.837800 0.731799
vn 2.208729 -0.536819 1.962614
v -0.489744 12.277400 2.011270
vn -0.494552 -1.788887 2.337227
v -0.416238 12.297500 2.040280
vn 0.482112 1.822303 -2.313276
v -0.463581 12.245600 2.081650
vn -2.137421 0.409241 -2.058737
v -0.416238 12.297500 2.040280
vn 0.501673 -0.673318 1.558076
v -1.122710 13.773600 2.858760
vn -0.226519 -0.553001 0.801798
v -1.092820 13.775000 2.868170
vn 1.124872 0.974396 -0.931968
v -1.113630 13.758100 2.884470
vn -1.367034 0.181902 -1.447378
v -1.092820 13.775000 2.868170
vn -1.493781 0.899239 0.467771
v 0.826095 10.099600 0.035743
vn 1.270267 -0.258637 1.054777
v 0.746296 10.196000 -0.100342
vn 1.048398 0.286651 2.737973
v 1.399300 11.491400 -0.559448
vn -2.603771 1.308275 -0.718539
v 1.496430 11.475700 -0.473866
vn 0.906028 -0.394988 0.151983
v 0.783578 10.330200 0.026178
vn 2.635294 -1.247486 0.665106
v 1.395840 11.553400 -0.444781
vn -0.821479 -0.275129 -1.801347
v 0.783578 10.330200 0.026178
vn -1.202196 -0.446086 -2.710922
v 1.395840 11.553400 -0.444781
vn 1.093276 0.177317 2.706101
v 2.091760 12.441800 -0.994928
vn -2.525378 1.345400 -0.651298
v 2.158420 12.414600 -0.928747
vn 2.473162 -1.514909 0.760650
v 2.089670 12.479900 -0.904889
vn -1.103364 -0.105378 -2.777451
v 2.089670 12.479900 -0.904889
vn 1.050992 -0.017454 2.782127
v 3.182140 13.946400 -1.327660
vn -2.485899 1.497374 -0.644223
v 3.216130 13.931400 -1.294680
vn 2.464936 -1.568494 0.675653
v 3.178940 13.961000 -1.280320
vn -1.096509 -0.022629 -2.791515
v 3.178940 13.961000 -1.280320
vn -0.117378 0.497235 1.649237
v 3.566100 14.536500 -1.478190
vn -1.228668 0.456150 -1.130877
v 3.588100 14.528400 -1.458030
vn 1.686538 -0.992126 0.413814
v 3.563100 14.543700 -1.448260
vn -0.374614 -0.020186 -0.926961
v 3.563100 14.543700 -1.448260
vn -0.704324 -0.908988 1.634853
v 0.592048 11.229400 0.009474
vn 1.197346 0.762109 0.847832
v 0.547225 11.078200 -0.101136
vn 1.432087 0.349266 2.585163
v -0.569076 12.490400 0.210365
vn -0.769746 -1.663195 2.353818
v -0.488008 12.528400 0.262074
vn 0.001583 0.336964 -1.805398
v 0.621738 10.982600 0.025092
vn 0.816649 1.619328 -2.454761
v -0.552691 12.462500 0.308570
vn -0.339030 -0.099982 -0.935448
v 0.592048 11.229400 0.009474
vn -1.335438 -0.327959 -2.644722
v -0.488008 12.528400 0.262074
vn 0.340882 -0.608684 1.604949
v -2.038680 14.211100 1.172660
vn -0.234245 -0.620750 0.748197
v -2.015260 14.220100 1.187460
vn 1.022014 1.230718 -0.707335
v -2.033220 14.200400 1.199210
vn -1.085248 -0.063807 -1.678369
v -2.015260 14.220100 1.187460
# 201 vertices, 0 vertices normals

f 16//16 20//20 19//19
f 15//15 16//16 19//19
f 15//15 19//19 18//18
f 14//14 15//15 18//18
f 14//14 18//18 17//17
f 13//13 14//14 17//17
f 12//12 16//16 15//15
f 11//11 12//12 15//15
f 11//11 15//15 14//14
f 10//10 11//11 14//14
f 10//10 14//14 13//13
f 9//9 10//10 13//13
f 8//8 12//12 11//11
f 7//7 8//8 11//11
f 7//7 11//11 10//10
f 4//4 7//7 10//10
f 4//4 10//10 9//9
f 3//3 4//4 9//9
f 4//4 3//3 1//1
f 7//7 4//4 1//1
f 7//7 1//1 6//6
f 5//5 7//7 6//6
f 5//5 6//6 57//57
f 1//1 3//3 2//2
f 54//54 1//1 2//2
f 54//54 2//2 53//53
f 49//49 54//54 53//53
f 49//49 53//53 48//48
f 40//40 49//49 48//48
f 40//40 48//48 39//39
f 24//24 40//40 39//39
f 24//24 39//39 23//23
f 21//21 24//24 23//23
f 21//21 23//23 22//22
f 39//39 48//48 41//41
f 23//23 39//39 41//41
f 23//23 41//41 26//26
f 22//22 23//23 26//26
f 22//22 26//26 25//25
f 28//28 25//25 26//26
f 42//42 28//28 26//26
f 42//42 26//26 41//41
f 50//50 42//42 41//41
f 50//50 41//41 48//48
f 55//55 50//50 48//48
f 55//55 48//48 53//53
f 2//2 55//55 53//53
f 24//24 21//21 37//37
f 38//38 24//24 37//37
f 38//38 37//37 35//35
f 36//36 38//38 35//35
f 36//36 35//35 33//33
f 34//34 36//36 33//33
f 34//34 33//33 30//30
f 31//31 34//34 30//30
f 31//31 30//30 29//29
f 32//32 31//31 29//29
f 40//40 24//24 38//38
f 47//47 40//40 38//38
f 47//47 38//38 36//36
f 46//46 47//47 36//36
f 46//46 36//36 34//34
f 45//45 46//46 34//34
f 45//45 34//34 31//31
f 43//43 45//45 31//31
f 43//43 31//31 32//32
f 44//44 43//43 32//32
f 45//45 43//43 52//52
f 46//46 45//45 52//52
f 46//46 52//52 49//49
f 47//47 46//46 49//49
f 47//47 49//49 40//40
f 51//51 52//52 43//43
f 44//44 51//51 43//43
f 56//56 52//52 51//51
f 57//57 56//56 51//51
f 56//56 49//49 52//52
f 54//54 49//49 56//56
f 6//6 54//54 56//56
f 54//54 6//6 1//1
f 7//7 5//5 8//8
f 27//27 25//25 28//28
f 56//56 57//57 6//6
f 65//65 64//64 62//62
f 63//63 65//65 62//62
f 63//63 62//62 59//59
f 60//60 63//63 59//59
f 60//60 59//59 58//58
f 61//61 60//60 58//58
f 69//69 65//65 63//63
f 68//68 69//69 63//63
f 68//68 63//63 60//60
f 66//66 68//68 60//60
f 66//66 60//60 61//61
f 67//67 66//66 61//61
f 73//73 69//69 68//68
f 72//72 73//73 68//68
f 72//72 68//68 66//66
f 70//70 72//72 66//66
f 70//70 66//66 67//67
f 71//71 70//70 67//67
f 91//91 90//90 87//87
f 88//88 91//91 87//87
f 88//88 87//87 86//86
f 89//89 88//88 86//86
f 89//89 86//86 92//92
f 93//93 89//89 92//92
f 96//96 91//91 88//88
f 94//94 96//96 88//88
f 94//94 88//88 89//89
f 95//95 94//94 89//89
f 95//95 89//89 93//93
f 97//97 95//95 93//93
f 100//100 96//96 94//94
f 98//98 100//100 94//94
f 98//98 94//94 95//95
f 99//99 98//98 95//95
f 99//99 95//95 97//97
f 101//101 99//99 97//97
f 175//175 174//174 171//171
f 172//172 175//175 171//171
f 172//172 171//171 170//170
f 173//173 172//172 170//170
f 173//173 170//170 176//176
f 177//177 173//173 176//176
f 180//180 175//175 172//172
f 178//178 180//180 172//172
f 178//178 172//172 173//173
f 179//179 178//178 173//173
f 179//179 173//173 177//177
f 181//181 179//179 177//177
f 184//184 180//180 178//178
f 182//182 184//184 178//178
f 182//182 178//178 179//179
f 183//183 182//182 179//179
f 183//183 179//179 181//181
f 185//185 183//183 181//181
f 188//188 184//184 182//182
f 186//186 188//188 182//182
f 186//186 182//182 183//183
f 187//187 186//186 183//183
f 187//187 183//183 185//185
f 189//189 187//187 185//185
f 197//197 196//196 194//194
f 195//195 197//197 194//194
f 195//195 194//194 191//191
f 192//192 195//195 191//191
f 192//192 191//191 190//190
f 193//193 192//192 190//190
f 201//201 197//197 195//195
f 200//200 201//201 195//195
f 200//200 195//195 192//192
f 198//198 200//200 192//192
f 198//198 192//192 193//193
f 199//199 198//198 193//193
f 129//129 133//133 131//131
f 127//127 129//129 131//131
f 127//127 131//131 130//130
f 126//126 127//127 130//130
f 126//126 130//130 132//132
f 128//128 126//126 132//132
f 125//125 129//129 127//127
f 121//121 125//125 127//127
f 121//121 127//127 126//126
f 120//120 121//121 126//126
f 120//120 126//126 128//128
f 123//123 120//120 128//128
f 124//124 125//125 121//121
f 118//118 124//124 121//121
f 118//118 121//121 120//120
f 119//119 118//118 120//120
f 119//119 120//120 123//123
f 122//122 119//119 123//123
f 141//141 140//140 138//138
f 139//139 141//141 138//138
f 139//139 138//138 135//135
f 136//136 139//139 135//135
f 136//136 135//135 134//134
f 137//137 136//136 134//134
f 145//145 141//141 139//139
f 144//144 145//145 139//139
f 144//144 139//139 136//136
f 142//142 144//144 136//136
f 142//142 136//136 137//137
f 143//143 142//142 137//137
f 149//149 145//145 144//144
f 148//148 149//149 144//144
f 148//148 144//144 142//142
f 146//146 148//148 142//142
f 146//146 142//142 143//143
f 147//147 146//146 143//143
f 153//153 149//149 148//148
f 152//152 153//153 148//148
f 152//152 148//148 146//146
f 150//150 152//152 146//146
f 150//150 146//146 147//147
f 151//151 150//150 147//147
f 76//76 75//75 74//74
f 77//77 76//76 74//74
f 77//77 74//74 79//79
f 80//80 77//77 79//79
f 80//80 79//79 78//78
f 81//81 80//80 78//78
f 82//82 76//76 77//77
f 83//83 82//82 77//77
f 83//83 77//77 80//80
f 84//84 83//83 80//80
f 84//84 80//80 81//81
f 85//85 84//84 81//81
f 109//109 108//108 106//106
f 107//107 109//109 106//106
f 107//107 106//106 103//103
f 104//104 107//107 103//103
f 104//104 103//103 102//102
f 105//105 104//104 102//102
f 113//113 109//109 107//107
f 112//112 113//113 107//107
f 112//112 107//107 104//104
f 110//110 112//112 104//104
f 110//110 104//104 105//105
f 111//111 110//110 105//105
f 117//117 113//113 112//112
f 116//116 117//117 112//112
f 116//116 112//112 110//110
f 114//114 116//116 110//110
f 114//114 110//110 111//111
f 115//115 114//114 111//111
f 161//161 160//160 158//158
f 159//159 161//161 158//158
f 159//159 158//158 155//155
f 156//156 159//159 155//155
f 156//156 155//155 154//154
f 157//157 156//156 154//154
f 165//165 161//161 159//159
f 164//164 165//165 159//159
f 164//164 159//159 156//156
f 162//162 164//164 156//156
f 162//162 156//156 157//157
f 163//163 162//162 157//157
f 169//169 165//165 164//164
f 168//168 169//169 164//164
f 168//168 164//164 162//162
f 166//166 168//168 162//162
f 166//166 162//162 163//163
f 167//167 166//166 163//163
# 245 faces, 0 coords texture

# End of File